<?xml version="1.0" encoding="utf-8"?>
<!-- Generator: Adobe Illustrator 19.2.1, SVG Export Plug-In . SVG Version: 6.00 Build 0)  -->
<svg version="1.1" id="layer" xmlns="http://www.w3.org/2000/svg" xmlns:xlink="http://www.w3.org/1999/xlink" x="0px" y="0px"
	 viewBox="0 0 652 652" style="enable-background:new 0 0 652 652;" xml:space="preserve">
<style type="text/css">
	.st0{fill:#494545;}
	.st1{fill:#FFDD00;}
</style>
<g>
	<path class="st0" d="M181.3,348.8v-3.3c0-37.8-22.1-61.2-54.5-61.2c-13.8,0-27.3,5.6-37.5,15.9c-10.1,10.1-15.5,23.1-15.5,37.3
		c0,14.4,5.1,27.3,14.9,37.6c10.4,11,22.9,16.3,38.4,16.3c22.7,0,39.5-10.8,49.4-32h-32.9c-4.5,4-9.5,5.6-15.5,5.6
		c-13,0-20.9-5.6-23.5-16.5L181.3,348.8z M151.2,327.6h-47.5c2.1-9.7,11-16.1,23.5-16.1C139.1,311.6,147.6,317.2,151.2,327.6"/>
	<path class="st0" d="M294.5,348.8v-3.3c0-37.8-22.1-61.2-54.5-61.2c-13.8,0-27.3,5.6-37.5,15.9c-10.1,10.1-15.5,23.1-15.5,37.3
		c0,14.4,5.1,27.3,14.9,37.6c10.4,11,22.9,16.3,38.4,16.3c22.7,0,39.5-10.8,49.4-32h-32.9c-4.5,4-9.5,5.6-15.5,5.6
		c-13,0-20.9-5.6-23.5-16.5L294.5,348.8z M264.3,327.6h-47.5c2.1-9.7,11-16.1,23.5-16.1C252.2,311.6,260.8,317.2,264.3,327.6"/>
	<path class="st0" d="M31.4,310.2v79h29.4v-79h12v-22.7H60.7v-2.5c0-9.3,2.1-12.3,11.2-12.3h0.8v-20.5c-1.7,0-3.3-0.2-4.7-0.2
		c-25.1,0.1-36.8,10-36.8,31.7c0,1.1,0.2,2.5,0.2,3.8h-11v22.7H31.4z"/>
	<path class="st0" d="M305.8,310.2v79h29.4v-79h12v-22.7h-12v-2.5c0-9.3,2.1-12.3,11.2-12.3h0.8v-20.4c-1.7,0-3.3-0.2-4.7-0.2
		c-25.1,0-36.8,9.9-36.8,31.6c0,1.1,0.2,2.5,0.2,3.8h-11v22.7H305.8z"/>
	<path class="st0" d="M454.3,337.7c0-13.8-5.8-27.9-16.7-38c-10.2-9.7-22.9-14.7-37.7-14.7c-13.8,0-27.3,5.6-37.5,15.9
		c-10.1,10.1-15.5,23.1-15.5,37.3c0,14.2,5.1,27.3,14.9,37.5c10.4,11,22.9,16.3,38.4,16.3c15.3,0,28.2-5.5,38.6-15.9
		C449.2,365.7,454.3,353,454.3,337.7 M424.6,338.5c0,13.8-10.8,25-24,25c-13,0-24-11.2-24-25c0-14,10.8-25.2,24-25.2
		C413.8,313.3,424.6,324.4,424.6,338.5"/>
	<path class="st1" d="M500.3,321.1c-14.4-0.9-25.9-12.4-26.8-26.9h57h6v-0.7c0-24.7-15.8-41.3-37.6-41.3
		c-23.1,0-38.8,16.9-38.8,38.9c0,20.8,16.2,39.1,38.3,39.1c16.1,0,28.8-8.9,35.7-25.5h-6.3c-4.6,9.7-14.4,16.4-25.7,16.4
		C501.3,321.2,500.8,321.2,500.3,321.1"/>
	<path class="st1" d="M580.2,321.1c14.4-0.9,25.9-12.4,26.8-26.9h-57h-6v-0.7c0-24.7,15.8-41.3,37.6-41.3
		c23.1,0,38.8,16.9,38.8,38.9c0,20.8-16.2,39.1-38.3,39.1c-16.1,0-28.8-8.9-35.7-25.5h6.4c4.6,9.7,14.4,16.4,25.7,16.4
		C579,321.2,579.6,321.2,580.2,321.1"/>
</g>
</svg>
