<svg width="320" height="70" viewBox="0 0 320 70" xmlns="http://www.w3.org/2000/svg"><title>Slice 1</title><g fill="none" fill-rule="evenodd"><g fill="#D2D2D2"><path d="M29.6 21.203h-6.172l.035-6.59-9.137 1.36v5.09l-4.15.628v4.047h4.29l-.036 17.75c.03.64 1.056 6.4 7.29 6.033 7.07-.415 7.67-1.22 8.3-1.64-.05.053 0-3.45 0-3.45l-3.837.103s-2.162-.14-2.51-2.545c-.015 0-.07-16.182-.07-16.182l5.997.035v-4.637zM42.878 8.623l-12.336 1.77.017 2.353 3.277 1.465.035 30.81-3.103 1.222.033 2.528 15.135.018v-2.51l-3.05-1.326.016-18.222s1.727-.767 4.115-.767 3.487 1.535 3.487 2.476v16.564l-2.79 1.238v2.546h15.1v-2.44l-3.104-1.518V26.155s.07-5.928-6.8-5.632c-4.18.025-7.14 1.343-10.052 3.644 0-.008 0-15.527.018-15.544zM79.916 32.15l-7.67.347s-.05-3.92.73-6.407c.625-1.986 1.886-2.64 3.34-2.643 2.422-.004 3.027 1.354 3.3 3.023.39 2.4.326 5.655.3 5.68zm8.976 3.577h-16.62s-.1 8.067 8.482 8.125c3.625.025 7.077-1.01 7.077-1.01v2.6s-2.662 3.872-10.01 4.12c-9.3-.145-14.253-3.715-14.944-13.317-.074-5.943 1.444-15.138 13.464-15.708 12.266-.582 12.902 9.11 12.552 15.19z"/></g><g fill="#B4B4B4"><path d="M108.606 28.58v2.632s.453 4.742-3.14 4.76c-3.59.017-3.486-2.755-3.486-4.76v-3.104s-.21-4.5 3.19-4.516c3.4-.018 3.418 3.505 3.436 4.987zm11.09-8.266l-7.655 1.412s-3.975-1.447-6.8-1.447c-1.9 0-11.7.752-12.058 9.356-.252 6.074 4.875 8.34 4.84 8.34-.035 0-4.883 3-4.917 6.732-.035 3.73 4.394 4.777 4.394 4.777.008-.09-6.698 1.018-6.697 5.58 0 4.22 6.975 6.277 14.368 6.312 7.394.035 15.52-2.057 15.52-10.81 0-8.754-8.51-7.743-8.51-7.743h-10.95s-1.64-.174-1.71-1.848c-.07-1.674 1.117-2.092 1.117-2.092s2.337.697 4.778.697c2.44 0 12.03-1.01 12.03-9.31 0-3.77-2.963-5.928-2.963-5.928l5.303 1.42-.09-5.448zm-20.14 30.863s-1.238.82-1.238 2.807c0 1.988 1.813 4.045 6.87 4.045s7.515-1.76 7.515-4.71c0-1.917-2.18-2.16-2.18-2.16l-10.967.017zM133 20.47l-12.346 1.92v2.405l3.174 1.534v15.518s.165 7.62 7.637 7.707c6.068.07 9.102-4.15 9.102-4.15v4.08l11.962-1.43v-2.197l-3.058-1.764V20.54l-12.288 1.918v2.302l3.244 1.64v16.564s-.837.697-3.523.907c-2.685.21-3.905-2.336-3.905-2.336V20.47zM155.052 22.46s5.894-2.145 10.752-2.145c4.857 0 11.885 1.652 11.885 7.694V44.75l3.008 1.578v1.998s-2.146 1.16-5.302 1.16c-3.156 0-5.894-1.604-5.894-4.02-.686.012-.935 3.97-8.334 3.97-8.63 0-7.965-7.645-7.965-7.793 0-.148-.248-5.706 6.04-6.904 6.215-1.183 9.1-1.652 9.1-1.652l-.03-5.622s-.512-3.403-3.446-3.378c-2.935.024-2.91.05-2.91.05l-2.072 5.646h-4.857l.024-7.324zm13.526 21.072v-7.595s-6.19-.555-6.202 4.4c-.01 3.733 2.336 4.17 3.403 4.17 1.22-.08 2.03-.51 2.798-.975zM193.323 20.216l-12.058 1.9v2.514l3.107 1.48v18.667l-2.885 1.48v2.367h15.88v-2.27l-3.797-1.528.024-15.412s2.417-.962 4.858-.962c2.442 0 3.65.272 3.65.272V20.66s-5.168-1.618-8.828 5.598l.05-6.042zM217.218 11.018v2.442l3.033 1.455v6.608s-2.12-1.01-4.684-1.01c-2.565 0-13.045.394-13.34 14.795-.297 14.4 10.898 14.203 10.8 14.203-.1 0 5.13.15 7.496-2.908-.012 0-.024 2.897-.024 2.897l11.848-1.444v-2.342l-2.848-1.455-.025-35.165-12.255 1.923zm3.02 14.278v18.716s-.977.494-2.798.494c-2.962 0-5.468-2.016-5.45-8.508.016-5.67.844-10.127 3.324-11.294 2.48-1.166 4.81.436 4.925.592zM245.85 13.688c0 2.78-2.258 5.04-5.04 5.04-2.78 0-5.04-2.26-5.04-5.04 0-2.782 2.26-5.04 5.04-5.04 2.782 0 5.04 2.258 5.04 5.04zm-.21 6.643l-12.52 1.78v2.406l3.28 1.604v18.692l-3 1.36v2.546h15.065v-2.44l-2.86-1.396.035-24.55zM251.355 22.43s5.894-2.146 10.752-2.146c4.858 0 11.886 1.652 11.886 7.694V44.72L277 46.3v1.997s-2.144 1.16-5.3 1.16c-3.157 0-5.894-1.604-5.894-4.02-.686.01-.936 3.97-8.335 3.97-8.63 0-7.964-7.645-7.964-7.793 0-.148-.248-5.707 6.04-6.905 6.216-1.184 9.1-1.653 9.1-1.653l-.03-5.622s-.512-3.403-3.446-3.378c-2.935.024-2.91.05-2.91.05l-2.07 5.646h-4.86l.025-7.324zM264.88 43.5v-7.595s-6.19-.554-6.2 4.402c-.01 3.73 2.335 4.167 3.402 4.167 1.22-.078 2.03-.507 2.8-.974zM289.755 20.26l-12.31 1.954v2.337l3.313 1.57v18.832l-3.034 1.22v2.616h15.065v-2.58L290 44.88V26.678s1.5-.697 3.696-.697c2.197 0 3.905.977 3.905 3.14V44.88l-3.09 1.52-.012 2.316h15.344v-2.476l-3-1.255V27.515s.21-6.975-6.87-6.975c-7.078 0-10.182 3.732-10.182 3.732l-.035-4.01z"/></g></g></svg>